<svg width="207" height="116" viewBox="0 0 207 116" fill="none" xmlns="http://www.w3.org/2000/svg">
<path d="M44.7696 24.3333C41.6953 24.3333 28.4962 24.6345 20 37.4049V24.3333C20 16.282 13.4401 9.73333 5.375 9.73333C2.68309 9.73333 0.5 11.9127 0.5 14.6C0.5 17.2873 2.68309 19.4667 5.375 19.4667C8.06234 19.4667 10.25 21.6506 10.25 24.3333V63.2667C10.25 68.6352 14.6223 73 20 73H46.8125C48.1592 73 49.25 71.9111 49.25 70.5667V68.1333C49.25 65.446 47.0669 63.2667 44.375 63.2667H39.5L59 48.6667V70.5667C59 71.9111 60.0908 73 61.4375 73H66.3125C67.6592 73 68.75 71.9111 68.75 70.5667V39.2162C67.1824 39.6223 65.5675 39.9067 63.875 39.9067C54.4586 39.9067 46.5809 33.2074 44.7696 24.3333ZM68.75 9.73333H59L49.25 0V20.44C49.25 28.5035 55.7977 35.04 63.875 35.04C71.9523 35.04 78.5 28.5035 78.5 20.44V0L68.75 9.73333ZM57.7812 21.9C56.4345 21.9 55.3438 20.8111 55.3438 19.4667C55.3438 18.1222 56.4345 17.0333 57.7812 17.0333C59.128 17.0333 60.2188 18.1222 60.2188 19.4667C60.2188 20.8111 59.128 21.9 57.7812 21.9ZM69.9688 21.9C68.622 21.9 67.5312 20.8111 67.5312 19.4667C67.5312 18.1222 68.622 17.0333 69.9688 17.0333C71.3155 17.0333 72.4062 18.1222 72.4062 19.4667C72.4062 20.8111 71.3155 21.9 69.9688 21.9Z" fill="black"/>
<path d="M162.23 24.3333C165.305 24.3333 178.504 24.6345 187 37.4049V24.3333C187 16.282 193.56 9.73333 201.625 9.73333C204.317 9.73333 206.5 11.9127 206.5 14.6C206.5 17.2873 204.317 19.4667 201.625 19.4667C198.938 19.4667 196.75 21.6506 196.75 24.3333V63.2667C196.75 68.6352 192.378 73 187 73H160.188C158.841 73 157.75 71.9111 157.75 70.5667V68.1333C157.75 65.446 159.933 63.2667 162.625 63.2667H167.5L148 48.6667V70.5667C148 71.9111 146.909 73 145.562 73H140.688C139.341 73 138.25 71.9111 138.25 70.5667V39.2162C139.818 39.6223 141.432 39.9067 143.125 39.9067C152.541 39.9067 160.419 33.2074 162.23 24.3333ZM138.25 9.73333H148L157.75 0V20.44C157.75 28.5035 151.202 35.04 143.125 35.04C135.048 35.04 128.5 28.5035 128.5 20.44V0L138.25 9.73333ZM149.219 21.9C150.565 21.9 151.656 20.8111 151.656 19.4667C151.656 18.1222 150.565 17.0333 149.219 17.0333C147.872 17.0333 146.781 18.1222 146.781 19.4667C146.781 20.8111 147.872 21.9 149.219 21.9ZM137.031 21.9C138.378 21.9 139.469 20.8111 139.469 19.4667C139.469 18.1222 138.378 17.0333 137.031 17.0333C135.685 17.0333 134.594 18.1222 134.594 19.4667C134.594 20.8111 135.685 21.9 137.031 21.9Z" fill="white"/>
<path d="M1.771 109V92.21H7.36C8.47933 92.21 9.453 92.4247 10.281 92.854C11.1243 93.2833 11.776 93.889 12.236 94.671C12.696 95.4377 12.926 96.3423 12.926 97.385C12.926 98.4123 12.6883 99.317 12.213 100.099C11.753 100.881 11.109 101.487 10.281 101.916C9.453 102.345 8.47933 102.56 7.36 102.56H4.646V109H1.771ZM4.646 99.961H7.36C8.15733 99.961 8.79367 99.731 9.269 99.271C9.75967 98.7957 10.005 98.167 10.005 97.385C10.005 96.5877 9.75967 95.959 9.269 95.499C8.79367 95.039 8.15733 94.809 7.36 94.809H4.646V99.961ZM20.714 109.23C19.6407 109.23 18.7053 109.023 17.908 108.609C17.1107 108.195 16.4897 107.62 16.045 106.884C15.6157 106.133 15.401 105.259 15.401 104.262V101.088C15.401 100.091 15.6157 99.225 16.045 98.489C16.4897 97.7377 17.1107 97.155 17.908 96.741C18.7053 96.327 19.6407 96.12 20.714 96.12C21.772 96.12 22.692 96.327 23.474 96.741C24.2713 97.155 24.8847 97.7377 25.314 98.489C25.7587 99.225 25.981 100.091 25.981 101.088V103.365H18.184V104.262C18.184 105.151 18.3987 105.826 18.828 106.286C19.2573 106.731 19.8937 106.953 20.737 106.953C21.381 106.953 21.9023 106.846 22.301 106.631C22.6997 106.401 22.9527 106.071 23.06 105.642H25.889C25.6743 106.731 25.0917 107.605 24.141 108.264C23.2057 108.908 22.0633 109.23 20.714 109.23ZM23.198 101.755V101.065C23.198 100.191 22.991 99.524 22.577 99.064C22.163 98.5887 21.542 98.351 20.714 98.351C19.886 98.351 19.2573 98.5887 18.828 99.064C18.3987 99.5393 18.184 100.214 18.184 101.088V101.571L23.405 101.525L23.198 101.755ZM35.862 109C34.6507 109 33.7 108.663 33.01 107.988C32.3354 107.313 31.998 106.386 31.998 105.205V98.949H28.571V96.35H31.998V92.785H34.896V96.35H39.749V98.949H34.896V105.205C34.896 106.002 35.287 106.401 36.069 106.401H39.519V109H35.862ZM47.79 109.207C46.824 109.207 45.9807 109.054 45.26 108.747C44.5394 108.44 43.972 108.019 43.558 107.482C43.1594 106.93 42.9447 106.286 42.914 105.55H45.789C45.8197 105.949 46.0114 106.271 46.364 106.516C46.732 106.761 47.2074 106.884 47.79 106.884H48.802C49.5074 106.884 50.0364 106.746 50.389 106.47C50.7417 106.194 50.918 105.818 50.918 105.343C50.918 104.898 50.757 104.553 50.435 104.308C50.1284 104.047 49.6454 103.879 48.986 103.802L47.422 103.572C45.9807 103.373 44.9227 102.989 44.248 102.422C43.5734 101.855 43.236 101.004 43.236 99.869C43.236 98.6883 43.6347 97.776 44.432 97.132C45.2294 96.4727 46.4024 96.143 47.951 96.143H48.825C50.2357 96.143 51.3627 96.4573 52.206 97.086C53.0494 97.7147 53.5017 98.558 53.563 99.616H50.688C50.642 99.2787 50.4504 99.0027 50.113 98.788C49.791 98.5733 49.3617 98.466 48.825 98.466H47.951C47.2917 98.466 46.8087 98.5887 46.502 98.834C46.2107 99.064 46.065 99.409 46.065 99.869C46.065 100.298 46.1954 100.62 46.456 100.835C46.7167 101.034 47.1384 101.18 47.721 101.272L49.354 101.502C50.8567 101.717 51.9607 102.123 52.666 102.721C53.3867 103.304 53.747 104.17 53.747 105.32C53.747 106.547 53.3254 107.505 52.482 108.195C51.654 108.87 50.4274 109.207 48.802 109.207H47.79ZM56.9351 109V92.21H59.8101V96.35L59.7411 98.765H60.5231L59.7411 99.432C59.7411 98.3893 60.0401 97.5767 60.6381 96.994C61.2514 96.4113 62.0871 96.12 63.1451 96.12C64.3871 96.12 65.3761 96.534 66.1121 97.362C66.8634 98.19 67.2391 99.3017 67.2391 100.697V109H64.3641V100.996C64.3641 100.229 64.1647 99.639 63.7661 99.225C63.3674 98.811 62.8077 98.604 62.0871 98.604C61.3817 98.604 60.8221 98.8187 60.4081 99.248C60.0094 99.6773 59.8101 100.291 59.8101 101.088V109H56.9351ZM75.8551 109.207C74.7817 109.207 73.8464 109.008 73.0491 108.609C72.2671 108.195 71.6537 107.62 71.2091 106.884C70.7797 106.133 70.5651 105.251 70.5651 104.239V101.111C70.5651 100.099 70.7797 99.225 71.2091 98.489C71.6537 97.7377 72.2671 97.1627 73.0491 96.764C73.8464 96.35 74.7817 96.143 75.8551 96.143C76.9437 96.143 77.8791 96.35 78.6611 96.764C79.4431 97.1627 80.0487 97.7377 80.4781 98.489C80.9227 99.225 81.1451 100.091 81.1451 101.088V104.239C81.1451 105.251 80.9227 106.133 80.4781 106.884C80.0487 107.62 79.4431 108.195 78.6611 108.609C77.8791 109.008 76.9437 109.207 75.8551 109.207ZM75.8551 106.7C76.6217 106.7 77.2121 106.493 77.6261 106.079C78.0554 105.65 78.2701 105.036 78.2701 104.239V101.111C78.2701 100.298 78.0554 99.685 77.6261 99.271C77.2121 98.857 76.6217 98.65 75.8551 98.65C75.1037 98.65 74.5134 98.857 74.0841 99.271C73.6547 99.685 73.4401 100.298 73.4401 101.111V104.239C73.4401 105.036 73.6547 105.65 74.0841 106.079C74.5134 106.493 75.1037 106.7 75.8551 106.7ZM84.5171 113.14V96.35H87.3231V98.765H87.9671L87.3231 99.432C87.3231 98.4047 87.6298 97.5997 88.2431 97.017C88.8564 96.419 89.6844 96.12 90.7271 96.12C91.9998 96.12 93.0194 96.557 93.7861 97.431C94.5528 98.305 94.9361 99.478 94.9361 100.95V104.377C94.9361 105.358 94.7598 106.217 94.4071 106.953C94.0698 107.674 93.5868 108.233 92.9581 108.632C92.3294 109.031 91.5858 109.23 90.7271 109.23C89.6844 109.23 88.8564 108.939 88.2431 108.356C87.6298 107.758 87.3231 106.945 87.3231 105.918L87.9671 106.585H87.3001L87.3921 109.598V113.14H84.5171ZM89.7151 106.746C90.4511 106.746 91.0261 106.531 91.4401 106.102C91.8541 105.673 92.0611 105.059 92.0611 104.262V101.088C92.0611 100.291 91.8541 99.6773 91.4401 99.248C91.0261 98.8187 90.4511 98.604 89.7151 98.604C88.9944 98.604 88.4271 98.8263 88.0131 99.271C87.5991 99.7003 87.3921 100.306 87.3921 101.088V104.262C87.3921 105.044 87.5991 105.657 88.0131 106.102C88.4271 106.531 88.9944 106.746 89.7151 106.746Z" fill="white"/>
<path d="M111.616 109V92.21H115.02L116.653 97.546C116.822 98.0827 116.96 98.5733 117.067 99.018C117.174 99.4627 117.243 99.7847 117.274 99.984C117.305 99.7847 117.374 99.4627 117.481 99.018C117.588 98.5733 117.719 98.0827 117.872 97.546L119.436 92.21H122.84V109H120.149V103.779C120.149 103.012 120.172 102.177 120.218 101.272C120.264 100.367 120.318 99.4627 120.379 98.558C120.44 97.6533 120.509 96.7947 120.586 95.982C120.678 95.1693 120.755 94.4563 120.816 93.843L118.562 101.778H115.94L113.617 93.843C113.694 94.4257 113.77 95.1157 113.847 95.913C113.924 96.695 113.993 97.5383 114.054 98.443C114.131 99.3323 114.192 100.237 114.238 101.157C114.284 102.077 114.307 102.951 114.307 103.779V109H111.616ZM125.867 109V106.378H130.283V98.949H126.442V96.35H133.043V106.378H136.953V109H125.867ZM131.433 94.234C130.85 94.234 130.39 94.0883 130.053 93.797C129.716 93.4903 129.547 93.084 129.547 92.578C129.547 92.072 129.716 91.6733 130.053 91.382C130.39 91.0753 130.85 90.922 131.433 90.922C132.016 90.922 132.476 91.0753 132.813 91.382C133.15 91.6733 133.319 92.072 133.319 92.578C133.319 93.084 133.15 93.4903 132.813 93.797C132.476 94.0883 132.016 94.234 131.433 94.234ZM143.407 109.23C142.104 109.23 141.076 108.885 140.325 108.195C139.574 107.505 139.198 106.577 139.198 105.412C139.198 104.17 139.612 103.212 140.44 102.537C141.268 101.862 142.441 101.525 143.959 101.525H147.11V100.444C147.11 99.8307 146.911 99.3553 146.512 99.018C146.113 98.6653 145.569 98.489 144.879 98.489C144.25 98.489 143.729 98.627 143.315 98.903C142.901 99.179 142.656 99.5547 142.579 100.03H139.773C139.911 98.834 140.448 97.8833 141.383 97.178C142.318 96.4727 143.514 96.12 144.971 96.12C146.52 96.12 147.739 96.511 148.628 97.293C149.533 98.0597 149.985 99.1023 149.985 100.421V109H147.202V106.792H146.742L147.202 106.171C147.202 107.106 146.857 107.85 146.167 108.402C145.477 108.954 144.557 109.23 143.407 109.23ZM144.35 107.068C145.163 107.068 145.822 106.861 146.328 106.447C146.849 106.033 147.11 105.496 147.11 104.837V103.296H144.005C143.422 103.296 142.955 103.465 142.602 103.802C142.249 104.139 142.073 104.584 142.073 105.136C142.073 105.734 142.272 106.209 142.671 106.562C143.085 106.899 143.645 107.068 144.35 107.068ZM154.093 109L152.161 96.35H154.553L155.611 104.101C155.673 104.546 155.726 105.036 155.772 105.573C155.834 106.11 155.88 106.554 155.91 106.907C155.956 106.554 156.018 106.11 156.094 105.573C156.171 105.036 156.24 104.546 156.301 104.101L157.497 96.35H159.728L160.901 104.101C160.963 104.546 161.032 105.044 161.108 105.596C161.185 106.133 161.246 106.577 161.292 106.93C161.323 106.562 161.369 106.11 161.43 105.573C161.507 105.021 161.568 104.53 161.614 104.101L162.741 96.35H165.041L163.063 109H160.096L158.992 101.203C158.931 100.774 158.862 100.298 158.785 99.777C158.709 99.2403 158.647 98.8033 158.601 98.466C158.555 98.8033 158.494 99.2403 158.417 99.777C158.356 100.298 158.287 100.774 158.21 101.203L157.06 109H154.093ZM172.461 109.23C171.388 109.23 170.445 109.031 169.632 108.632C168.835 108.218 168.214 107.643 167.769 106.907C167.325 106.156 167.102 105.274 167.102 104.262V101.088C167.102 100.061 167.325 99.179 167.769 98.443C168.214 97.707 168.835 97.1397 169.632 96.741C170.445 96.327 171.388 96.12 172.461 96.12C174.056 96.12 175.329 96.534 176.279 97.362C177.23 98.1747 177.728 99.2863 177.774 100.697H174.899C174.853 100.038 174.616 99.5317 174.186 99.179C173.772 98.811 173.197 98.627 172.461 98.627C171.695 98.627 171.089 98.8417 170.644 99.271C170.2 99.685 169.977 100.283 169.977 101.065V104.262C169.977 105.044 170.2 105.65 170.644 106.079C171.089 106.508 171.695 106.723 172.461 106.723C173.197 106.723 173.772 106.547 174.186 106.194C174.616 105.826 174.853 105.312 174.899 104.653H177.774C177.728 106.064 177.23 107.183 176.279 108.011C175.329 108.824 174.056 109.23 172.461 109.23ZM184.78 109.23C183.477 109.23 182.45 108.885 181.698 108.195C180.947 107.505 180.571 106.577 180.571 105.412C180.571 104.17 180.985 103.212 181.813 102.537C182.641 101.862 183.814 101.525 185.332 101.525H188.483V100.444C188.483 99.8307 188.284 99.3553 187.885 99.018C187.487 98.6653 186.942 98.489 186.252 98.489C185.624 98.489 185.102 98.627 184.688 98.903C184.274 99.179 184.029 99.5547 183.952 100.03H181.146C181.284 98.834 181.821 97.8833 182.756 97.178C183.692 96.4727 184.888 96.12 186.344 96.12C187.893 96.12 189.112 96.511 190.001 97.293C190.906 98.0597 191.358 99.1023 191.358 100.421V109H188.575V106.792H188.115L188.575 106.171C188.575 107.106 188.23 107.85 187.54 108.402C186.85 108.954 185.93 109.23 184.78 109.23ZM185.723 107.068C186.536 107.068 187.195 106.861 187.701 106.447C188.223 106.033 188.483 105.496 188.483 104.837V103.296H185.378C184.796 103.296 184.328 103.465 183.975 103.802C183.623 104.139 183.446 104.584 183.446 105.136C183.446 105.734 183.646 106.209 184.044 106.562C184.458 106.899 185.018 107.068 185.723 107.068ZM201.354 109C200.143 109 199.192 108.663 198.502 107.988C197.828 107.313 197.49 106.386 197.49 105.205V98.949H194.063V96.35H197.49V92.785H200.388V96.35H205.241V98.949H200.388V105.205C200.388 106.002 200.779 106.401 201.561 106.401H205.011V109H201.354Z" fill="black"/>
</svg>
